<mxfile host="65bd71144e">
    <diagram id="tBYvX2xzh4JVv8nWct_T" name="Page-1">
        <mxGraphModel dx="761" dy="557" grid="1" gridSize="10" guides="1" tooltips="1" connect="1" arrows="1" fold="1" page="1" pageScale="1" pageWidth="850" pageHeight="1100" math="0" shadow="0">
            <root>
                <mxCell id="0"/>
                <mxCell id="1" parent="0"/>
                <mxCell id="DQ16eLSjtrJbzWLSPgBY-1" value="&lt;b&gt;IoT Telemetry Simulator&lt;/b&gt;" style="rounded=0;whiteSpace=wrap;html=1;fillColor=#d5e8d4;strokeColor=#82b366;" parent="1" vertex="1">
                    <mxGeometry x="13" y="80" width="120" height="60" as="geometry"/>
                </mxCell>
                <mxCell id="DQ16eLSjtrJbzWLSPgBY-7" value="" style="endArrow=classic;html=1;rounded=0;entryX=0.5;entryY=0;entryDx=0;entryDy=0;" parent="1" source="DQ16eLSjtrJbzWLSPgBY-1" target="6" edge="1">
                    <mxGeometry width="50" height="50" relative="1" as="geometry">
                        <mxPoint x="163" y="100" as="sourcePoint"/>
                        <mxPoint x="73" y="310" as="targetPoint"/>
                    </mxGeometry>
                </mxCell>
                <mxCell id="DQ16eLSjtrJbzWLSPgBY-8" value="" style="endArrow=classic;html=1;rounded=0;exitX=0.951;exitY=0.577;exitDx=0;exitDy=0;exitPerimeter=0;entryX=0;entryY=0.5;entryDx=0;entryDy=0;" parent="1" source="6" target="4" edge="1">
                    <mxGeometry width="50" height="50" relative="1" as="geometry">
                        <mxPoint x="105.39999999999998" y="365.95352" as="sourcePoint"/>
                        <mxPoint x="422" y="366.83847951493783" as="targetPoint"/>
                    </mxGeometry>
                </mxCell>
                <mxCell id="DQ16eLSjtrJbzWLSPgBY-9" value="" style="endArrow=classic;html=1;rounded=0;exitX=1;exitY=0.5;exitDx=0;exitDy=0;entryX=0;entryY=0.5;entryDx=0;entryDy=0;" parent="1" source="4" target="5" edge="1">
                    <mxGeometry width="50" height="50" relative="1" as="geometry">
                        <mxPoint x="509.8399999999999" y="410" as="sourcePoint"/>
                        <mxPoint x="723" y="365" as="targetPoint"/>
                    </mxGeometry>
                </mxCell>
                <mxCell id="DQ16eLSjtrJbzWLSPgBY-10" value="&lt;div&gt;{&lt;/div&gt;&lt;div&gt;&amp;nbsp; &quot;tag&quot;: &quot;sim000001&quot;,&lt;/div&gt;&lt;div&gt;&amp;nbsp; &quot;ts&quot;: &quot;2023-01-13T10:10:11.5091350Z&quot;,&lt;/div&gt;&lt;div&gt;&amp;nbsp; &quot;value&quot;: 0.207759137669466&lt;/div&gt;&lt;div&gt;}&lt;/div&gt;" style="text;html=1;strokeColor=none;fillColor=none;align=left;verticalAlign=middle;whiteSpace=wrap;rounded=0;" parent="1" vertex="1">
                    <mxGeometry x="82" y="168" width="320" height="100" as="geometry"/>
                </mxCell>
                <mxCell id="4" value="" style="shape=image;verticalLabelPosition=bottom;labelBackgroundColor=default;verticalAlign=top;aspect=fixed;imageAspect=0;image=https://raw.githubusercontent.com/influxdata/telegraf/master/assets/TelegrafTiger.png;" parent="1" vertex="1">
                    <mxGeometry x="325" y="338" width="76.84" height="52" as="geometry"/>
                </mxCell>
                <mxCell id="5" value="" style="shape=image;verticalLabelPosition=bottom;labelBackgroundColor=default;verticalAlign=top;aspect=fixed;imageAspect=0;image=https://raw.githubusercontent.com/influxdata/influxdb/master/assets/influxdb-logo.png;" parent="1" vertex="1">
                    <mxGeometry x="535" y="341.66" width="230" height="44.68" as="geometry"/>
                </mxCell>
                <mxCell id="6" value="" style="shape=image;verticalLabelPosition=bottom;labelBackgroundColor=default;verticalAlign=top;aspect=fixed;imageAspect=0;image=https://upload.wikimedia.org/wikipedia/commons/thumb/5/53/Apache_kafka_wordtype.svg/2560px-Apache_kafka_wordtype.svg.png;" parent="1" vertex="1">
                    <mxGeometry x="13" y="329.5" width="123" height="61.5" as="geometry"/>
                </mxCell>
            </root>
        </mxGraphModel>
    </diagram>
</mxfile>